<svg xmlns="http://www.w3.org/2000/svg" version="1.1" xmlns:xlink="http://www.w3.org/1999/xlink" xmlns:svgjs="http://svgjs.com/svgjs" width="65.723" height="71.094"><svg width="65.723" height="71.094" viewBox="0 0 65.723 71.094" xmlns="http://www.w3.org/2000/svg"><g id="SvgjsG1000" stroke-linecap="round" fill-rule="nonzero" font-size="9pt" stroke="#000" stroke-width="0.25mm" fill="black" style="stroke:#000;stroke-width:0.25mm;fill:black"><path d="M 25.537 71.094 L 0 71.094 L 0 64.941 L 7.959 63.574 L 7.959 7.568 L 0 6.201 L 0 0 L 25.537 0 L 25.537 6.201 L 17.578 7.568 L 17.578 63.574 L 25.537 64.941 L 25.537 71.094 Z M 56.494 7.422 L 16.895 50.537 L 11.768 44.58 L 45.508 7.129 L 45.703 6.885 L 40.381 6.201 L 40.381 0 L 63.184 0 L 63.184 6.201 L 56.494 7.422 Z M 65.723 71.094 L 41.992 71.094 L 41.992 64.941 L 47.852 64.258 L 47.803 64.209 L 28.125 36.914 L 33.496 29.346 L 59.18 63.721 L 65.723 64.941 L 65.723 71.094 Z" vector-effect="non-scaling-stroke"></path></g></svg><style>@media (prefers-color-scheme: light) { :root { filter: none; } }
@media (prefers-color-scheme: dark) { :root { filter: invert(100%); } }
</style></svg>